<?xml version="1.0" encoding="UTF-8"?>
<svg version="1.1" xmlns="http://www.w3.org/2000/svg" width="548" height="786">
<path d="M0 0 C1.53993282 0.4710862 3.08009012 0.9414391 4.62045288 1.41111755 C7.92686851 2.4209191 11.2317113 3.4356597 14.53540039 4.4543457 C19.82783031 6.08619334 25.12359726 7.70701666 30.41992188 9.32617188 C36.88548711 11.30351136 43.35027927 13.2833399 49.81407547 15.2664547 C61.08426363 18.72389745 72.36023886 22.16192242 83.640625 25.5859375 C84.44817923 25.83107086 85.25573345 26.07620422 86.08775902 26.32876587 C90.14629168 27.56061524 94.20493823 28.79208886 98.26364136 30.02337646 C105.58300971 32.24402311 112.90143928 34.46776019 120.21991539 36.69134521 C122.67449149 37.43710814 125.12909012 38.18279684 127.58369446 38.9284668 C137.95067504 42.07786003 148.31725399 45.22857293 158.68362427 48.37997437 C164.93193307 50.27946877 171.18034982 52.17860796 177.42878914 54.07767296 C182.46080749 55.60707075 187.49268768 57.13692191 192.52445316 58.66715145 C195.6710009 59.62393005 198.81769117 60.58023927 201.9644146 61.5364399 C203.38253965 61.96746501 204.80061162 62.39866485 206.21861458 62.83009148 C221.33821449 67.42999812 236.47964569 71.95483121 251.6171875 76.49609375 C251.6171875 229.94609375 251.6171875 383.39609375 251.6171875 541.49609375 C71.1071875 541.49609375 -109.4028125 541.49609375 -295.3828125 541.49609375 C-295.3828125 388.37609375 -295.3828125 235.25609375 -295.3828125 77.49609375 C-290.59575742 75.70094809 -285.98094935 73.99860075 -281.11889648 72.5168457 C-279.33521667 71.97123238 -279.33521667 71.97123238 -277.51550293 71.41459656 C-276.21998704 71.02113558 -274.92445424 70.62773026 -273.62890625 70.234375 C-272.24452347 69.81200516 -270.86020729 69.38941697 -269.47595215 68.96662903 C-265.71502676 67.81868063 -261.95312237 66.67397187 -258.19102097 65.52988434 C-254.16855315 64.3060442 -250.1469704 63.07930166 -246.12524414 61.85302734 C-236.72991121 58.98904878 -227.33305358 56.1300931 -217.93579102 53.27245331 C-215.42917317 52.51019201 -212.92258935 51.74781896 -210.41601562 50.9854126 C-190.80661548 45.02112545 -171.19504906 39.06398473 -151.58235168 33.11054993 C-139.38375863 29.40760496 -127.18584853 25.70241617 -114.98828125 21.99609375 C-113.20529714 21.45433453 -111.42231272 20.91257631 -109.639328 20.37081909 C-102.79736686 18.29188461 -95.95541549 16.21291796 -89.11349487 14.1338501 C-88.32374614 13.89388998 -87.5339974 13.65392986 -86.72031689 13.40669823 C-85.14984932 12.92946076 -83.57942015 12.45209691 -82.00903034 11.97460365 C-78.21709051 10.82185629 -74.42447556 9.67144619 -70.63020325 8.52639771 C-63.87594386 6.48578286 -57.12977715 4.42666953 -50.40687752 2.28463173 C-47.38049067 1.32176651 -44.35025208 0.37137508 -41.31962204 -0.57803726 C-39.8997183 -1.02676355 -38.48173929 -1.48163592 -37.06596756 -1.94323349 C-22.86053169 -6.57247164 -13.99823947 -4.34153369 0 0 Z " fill="#DB3545" transform="translate(295.3828125,5.50390625)"/>
<path d="M0 0 C12.69297542 5.80107241 22.60661215 14.27908703 32.02719945 24.44736516 C34.48204246 27.0862106 37.00317426 29.64814866 39.53505653 32.21298707 C77.38780957 71.43189193 78.161635 116.6028807 77.63190597 168.17209542 C77.00827575 189.3702582 75.90347094 210.55207689 74.85323471 231.73338997 C73.18260971 279.39776497 71.51198471 327.06213997 69.79073471 376.17088997 C-110.71926529 376.17088997 -291.22926529 376.17088997 -477.20926529 376.17088997 C-473.55757666 371.91058657 -470.0716898 367.90766209 -466.13773209 363.96996224 C-465.67029083 363.50076867 -465.20284958 363.03157509 -464.72124344 362.54816353 C-463.2027986 361.02537965 -461.68080061 359.50620878 -460.15848404 357.98729622 C-459.09313731 356.92127484 -458.02793897 355.85510514 -456.96288162 354.78879464 C-454.74478943 352.56923687 -452.52492017 350.35147644 -450.30374771 348.1350013 C-447.45095646 345.28794862 -444.60273449 342.43637332 -441.7557922 339.58347332 C-439.56409733 337.38817751 -437.37004209 335.19525329 -435.17524773 333.00305665 C-434.12308702 331.95156435 -433.0716723 330.89932505 -432.02100807 329.84633744 C-430.56101186 328.38381789 -429.0978774 326.92451435 -427.63382584 325.46605599 C-426.80142884 324.63445458 -425.96903183 323.80285317 -425.11141068 322.94605172 C-423.20926529 321.17088997 -423.20926529 321.17088997 -422.20926529 321.17088997 C-422.20926529 338.99088997 -422.20926529 356.81088997 -422.20926529 375.17088997 C-391.84926529 375.17088997 -361.48926529 375.17088997 -330.20926529 375.17088997 C-330.20926529 354.05088997 -330.20926529 332.93088997 -330.20926529 311.17088997 C-357.26926529 311.17088997 -384.32926529 311.17088997 -412.20926529 311.17088997 C-406.20926529 304.17088997 -406.20926529 304.17088997 -405.20926529 303.17088997 C-402.86672747 303.07596275 -400.55380425 303.04529206 -398.21097428 303.05736458 C-397.11347855 303.05714554 -397.11347855 303.05714554 -395.99381119 303.05692208 C-393.56429746 303.05762131 -391.13485946 303.06541413 -388.70535904 303.07323372 C-387.02527015 303.07509787 -385.34518072 303.07652179 -383.6650911 303.07752144 C-379.23452886 303.0813469 -374.80399919 303.09117742 -370.37344986 303.10222542 C-365.06210875 303.11423342 -359.75075677 303.11884165 -354.43940598 303.12467873 C-346.36266973 303.13438916 -338.28600502 303.15354551 -330.20926529 303.17088997 C-330.20926529 291.29088997 -330.20926529 279.41088997 -330.20926529 267.17088997 C-342.74926529 267.17088997 -355.28926529 267.17088997 -368.20926529 267.17088997 C-362.20926529 260.17088997 -362.20926529 260.17088997 -361.20926529 259.17088997 C-359.76542123 259.11943005 -358.32111894 259.08053216 -356.87672096 259.04815495 C-354.42349846 258.85903829 -354.42349846 258.85903829 -352.20926529 258.17088997 C-350.46703324 255.6808827 -349.58425552 253.90464733 -348.52997452 251.13465035 C-344.7333937 242.87517392 -339.56770029 236.45924894 -333.41126114 229.82541573 C-332.94088827 229.31809387 -332.4705154 228.81077202 -331.98588881 228.28807677 C-328.92264866 224.99820041 -325.82881405 221.73819825 -322.72697932 218.48474193 C-320.47442181 216.11613726 -318.23597838 213.7343986 -315.9969999 211.35296541 C-294.63607726 188.64015388 -272.92199872 166.2564574 -251.14564186 143.9425565 C-248.30780037 141.03338046 -245.4706207 138.1235609 -242.63406998 135.2131263 C-241.92927988 134.49003921 -241.22448978 133.76695212 -240.49834241 133.02195329 C-229.15821404 121.37784062 -217.9942074 109.57896062 -206.89201401 97.70826136 C-195.40863293 85.43703087 -183.75778642 73.34414775 -171.94200534 61.39256829 C-165.34156969 54.70733618 -158.83121611 47.97109557 -152.50569397 41.02428162 C-111.37765239 -4.00061296 -60.27874226 -24.05224218 0 0 Z " fill="#ECF0F2" transform="translate(477.2092652916908,170.82911002635956)"/>
<path d="M0 0 C180.84 0 361.68 0 548 0 C548 37.29 548 74.58 548 113 C367.16 113 186.32 113 0 113 C0 75.71 0 38.42 0 0 Z " fill="#2C2E43" transform="translate(0,588)"/>
<path d="M0 0 C-5.21470941 53.58800061 -26.30651812 105.10592944 -64 144 C-64.53206055 144.5578418 -65.06412109 145.11568359 -65.61230469 145.69042969 C-73.3332878 153.76783441 -81.33639653 161.16237911 -90.35498047 167.77783203 C-91.51977875 168.64321942 -92.66291967 169.53811351 -93.78955078 170.45263672 C-94.38622559 170.92072754 -94.98290039 171.38881836 -95.59765625 171.87109375 C-96.13011963 172.30220459 -96.66258301 172.73331543 -97.21118164 173.17749023 C-99.83727764 174.38498545 -101.27811245 173.87296206 -104 173 C-106.48510742 171.57641602 -106.48510742 171.57641602 -109.10546875 169.75390625 C-110.56617798 168.75278809 -110.56617798 168.75278809 -112.05639648 167.73144531 C-113.08966064 167.01569336 -114.1229248 166.29994141 -115.1875 165.5625 C-125.19674991 158.77529813 -135.22479526 152.48853359 -146 147 C-146.94987793 146.51547363 -147.89975586 146.03094727 -148.87841797 145.53173828 C-161.88070321 138.96374322 -174.88484012 133.12727094 -188.77441406 128.71289062 C-190.87826482 128.03899372 -192.96660066 127.33039662 -195.0546875 126.609375 C-205.82216216 122.9654958 -216.81142481 120.90956627 -228 119 C-229.23234375 118.7834375 -230.4646875 118.566875 -231.734375 118.34375 C-239.46022181 117.06239004 -247.18445158 116.44526363 -255 116 C-253.57053508 110.55962467 -250.99497744 106.81969728 -247.625 102.4375 C-247.09334229 101.74003662 -246.56168457 101.04257324 -246.01391602 100.32397461 C-237.6966222 89.57014102 -228.76565199 80.33778982 -218 72 C-217.21367187 71.34773438 -216.42734375 70.69546875 -215.6171875 70.0234375 C-161.78811979 25.43236161 -70.25884034 -1.56130756 0 0 Z " fill="#2B2D42" transform="translate(496,298)"/>
<path d="M0 0 C1.53993282 0.4710862 3.08009012 0.9414391 4.62045288 1.41111755 C7.92686851 2.4209191 11.2317113 3.4356597 14.53540039 4.4543457 C19.82783031 6.08619334 25.12359726 7.70701666 30.41992188 9.32617188 C36.88548711 11.30351136 43.35027927 13.2833399 49.81407547 15.2664547 C61.08426363 18.72389745 72.36023886 22.16192242 83.640625 25.5859375 C84.44817923 25.83107086 85.25573345 26.07620422 86.08775902 26.32876587 C90.14629168 27.56061524 94.20493823 28.79208886 98.26364136 30.02337646 C105.58300971 32.24402311 112.90143928 34.46776019 120.21991539 36.69134521 C122.67449149 37.43710814 125.12909012 38.18279684 127.58369446 38.9284668 C137.95067504 42.07786003 148.31725399 45.22857293 158.68362427 48.37997437 C164.93193307 50.27946877 171.18034982 52.17860796 177.42878914 54.07767296 C182.46080749 55.60707075 187.49268768 57.13692191 192.52445316 58.66715145 C195.6710009 59.62393005 198.81769117 60.58023927 201.9644146 61.5364399 C203.38253965 61.96746501 204.80061162 62.39866485 206.21861458 62.83009148 C221.33821449 67.42999812 236.47964569 71.95483121 251.6171875 76.49609375 C251.6171875 123.68609375 251.6171875 170.87609375 251.6171875 219.49609375 C249.3071875 217.51609375 246.9971875 215.53609375 244.6171875 213.49609375 C243.89550857 212.93337485 243.17382963 212.37065596 242.43028164 211.79088497 C239.6326294 209.42670192 237.88434679 207.58633748 236.99884224 203.97270393 C236.75554956 200.88457439 236.75084482 197.87453744 236.82250977 194.77758789 C236.82148758 193.61589081 236.82046539 192.45419373 236.81941223 191.2572937 C236.82427536 187.43100333 236.87866427 183.60712166 236.93359375 179.78125 C236.94665454 177.12320415 236.95696073 174.46529038 236.96360779 171.80723572 C236.98531742 165.53488861 237.04269438 159.26340114 237.11305422 152.99143165 C237.19144526 145.8476335 237.22982088 138.70379309 237.26492226 131.55967152 C237.33798267 116.87137372 237.46101356 102.18374875 237.6171875 87.49609375 C236.94375809 87.36676453 236.27032867 87.2374353 235.57649231 87.10418701 C234.68604721 86.93026428 233.79560211 86.75634155 232.87817383 86.57714844 C231.99849442 86.40656921 231.118815 86.23598999 230.21247864 86.0602417 C226.46518627 85.24567902 222.91361998 84.0267772 219.3046875 82.74609375 C212.93370619 80.55733942 206.54205535 78.56028741 200.0546875 76.74609375 C190.79238039 74.14593199 181.57371181 71.41114854 172.3671875 68.62109375 C171.664729 68.40821716 170.96227051 68.19534058 170.23852539 67.97601318 C156.98684871 63.95380857 143.78949272 59.77142038 130.6171875 55.49609375 C130.6171875 61.43609375 130.6171875 67.37609375 130.6171875 73.49609375 C132.5971875 73.82609375 134.5771875 74.15609375 136.6171875 74.49609375 C138.6171875 76.49609375 138.6171875 76.49609375 138.84423828 78.65087891 C138.83376465 79.52019043 138.82329102 80.38950195 138.8125 81.28515625 C138.80750488 82.13287598 138.80250977 82.9805957 138.79736328 83.85400391 C138.77915527 84.93214355 138.76094727 86.0102832 138.7421875 87.12109375 C138.7009375 90.54484375 138.6596875 93.96859375 138.6171875 97.49609375 C130.6971875 97.49609375 122.7771875 97.49609375 114.6171875 97.49609375 C114.5346875 94.27859375 114.4521875 91.06109375 114.3671875 87.74609375 C114.33077148 86.73836914 114.29435547 85.73064453 114.25683594 84.69238281 C114.17543613 78.15676615 114.17543613 78.15676615 116.3828125 74.85546875 C118.6171875 73.49609375 118.6171875 73.49609375 122.6171875 73.49609375 C122.6171875 66.56609375 122.6171875 59.63609375 122.6171875 52.49609375 C119.3171875 51.83609375 116.0171875 51.17609375 112.6171875 50.49609375 C109.83197373 49.72596086 107.08303275 48.93257924 104.328125 48.0703125 C103.58116364 47.84084427 102.83420227 47.61137604 102.06460571 47.37495422 C99.70569229 46.64907678 97.34893636 45.91646443 94.9921875 45.18359375 C93.43893872 44.7046348 91.88555394 44.22611663 90.33203125 43.74804688 C84.45139497 41.93584526 78.57468469 40.11117919 72.703125 38.26977539 C62.1041841 34.94606807 51.48314081 31.69765135 40.85546875 28.46704102 C37.88518733 27.56406576 34.91522873 26.66003496 31.9453125 25.75585938 C20.45217459 22.25769068 20.45217459 22.25769068 8.94628906 18.80175781 C7.59117218 18.39732704 7.59117218 18.39732704 6.2086792 17.98472595 C4.5190723 17.48120768 2.82904025 16.97911275 1.13848877 16.47877502 C-4.20463953 14.88699488 -9.46167428 13.12891584 -14.6796875 11.16015625 C-23.05434346 9.10279857 -30.20106797 11.63662825 -38.19140625 14.15234375 C-39.43036148 14.53289917 -40.66931671 14.91345459 -41.94581604 15.30554199 C-45.24205443 16.3183497 -48.53391489 17.34472543 -51.82507324 18.37390137 C-55.081869 19.38949562 -58.34292968 20.39118786 -61.60351562 21.39453125 C-74.78769679 25.4589474 -87.94719057 29.59948869 -101.07115173 33.85473633 C-107.51370487 35.93492165 -113.9889439 37.8571498 -120.5078125 39.68359375 C-127.63944965 41.68348571 -134.63851078 43.88593661 -141.6484375 46.28125 C-146.50380174 47.86076703 -151.40697746 49.22119944 -156.34057617 50.53344727 C-161.79659434 52.00027107 -167.18136298 53.66540651 -172.57011414 55.36183167 C-181.41023048 58.14181471 -190.27826654 60.82997051 -199.14453125 63.52514648 C-202.11481267 64.42812174 -205.08477127 65.33215254 -208.0546875 66.23632812 C-216.5456732 68.81981063 -225.03829625 71.39682916 -233.54240417 73.93682861 C-242.19985069 76.52263351 -250.81904871 79.19530544 -259.39648438 82.03710938 C-264.29722275 83.62663725 -269.19306959 84.95605269 -274.21899414 86.09692383 C-275.37702042 86.36080399 -276.53504669 86.62468414 -277.72816467 86.89656067 C-278.60419846 87.09440659 -279.48023224 87.2922525 -280.3828125 87.49609375 C-280.37787614 88.37774867 -280.37293977 89.25940359 -280.36785382 90.16777533 C-280.07687313 142.43386811 -279.85385458 194.69987491 -279.71896322 246.96661572 C-279.70270423 253.24377708 -279.68587802 259.52093679 -279.66870117 265.7980957 C-279.66529114 267.04775326 -279.6618811 268.29741081 -279.65836773 269.58493678 C-279.6018164 289.81340427 -279.49932616 310.04139098 -279.37982615 330.26957335 C-279.25821117 351.02906394 -279.18603899 371.78830291 -279.15966207 392.5481351 C-279.1418333 405.35607232 -279.08554802 418.16265057 -278.97989843 430.9701694 C-278.9111242 439.75550301 -278.89042339 448.54013518 -278.90729459 457.32571837 C-278.91561365 462.39345242 -278.90296248 467.45881403 -278.83314133 472.52612495 C-278.76959628 477.17200527 -278.76684479 481.81393265 -278.81112687 486.4599999 C-278.81659387 488.13459359 -278.80032008 489.80943983 -278.75933113 491.48354074 C-278.56273689 500.01349009 -279.04285937 505.87946453 -285.04492681 512.32475384 C-292.40891645 519.49609375 -292.40891645 519.49609375 -295.3828125 519.49609375 C-295.3828125 373.63609375 -295.3828125 227.77609375 -295.3828125 77.49609375 C-290.59575742 75.70094809 -285.98094935 73.99860075 -281.11889648 72.5168457 C-279.33521667 71.97123238 -279.33521667 71.97123238 -277.51550293 71.41459656 C-276.21998704 71.02113558 -274.92445424 70.62773026 -273.62890625 70.234375 C-272.24452347 69.81200516 -270.86020729 69.38941697 -269.47595215 68.96662903 C-265.71502676 67.81868063 -261.95312237 66.67397187 -258.19102097 65.52988434 C-254.16855315 64.3060442 -250.1469704 63.07930166 -246.12524414 61.85302734 C-236.72991121 58.98904878 -227.33305358 56.1300931 -217.93579102 53.27245331 C-215.42917317 52.51019201 -212.92258935 51.74781896 -210.41601562 50.9854126 C-190.80661548 45.02112545 -171.19504906 39.06398473 -151.58235168 33.11054993 C-139.38375863 29.40760496 -127.18584853 25.70241617 -114.98828125 21.99609375 C-113.20529714 21.45433453 -111.42231272 20.91257631 -109.639328 20.37081909 C-102.79736686 18.29188461 -95.95541549 16.21291796 -89.11349487 14.1338501 C-88.32374614 13.89388998 -87.5339974 13.65392986 -86.72031689 13.40669823 C-85.14984932 12.92946076 -83.57942015 12.45209691 -82.00903034 11.97460365 C-78.21709051 10.82185629 -74.42447556 9.67144619 -70.63020325 8.52639771 C-63.87594386 6.48578286 -57.12977715 4.42666953 -50.40687752 2.28463173 C-47.38049067 1.32176651 -44.35025208 0.37137508 -41.31962204 -0.57803726 C-39.8997183 -1.02676355 -38.48173929 -1.48163592 -37.06596756 -1.94323349 C-22.86053169 -6.57247164 -13.99823947 -4.34153369 0 0 Z " fill="#312D42" transform="translate(295.3828125,5.50390625)"/>
<path d="M0 0 C20.61067864 -1.1208224 41.35005383 3.00060797 61 9 C61.83305664 9.25120605 62.66611328 9.50241211 63.52441406 9.76123047 C91.58905933 18.340333 117.57776329 31.84173304 142 48 C142.59039062 48.38768555 143.18078125 48.77537109 143.7890625 49.17480469 C149.95667964 53.24558098 149.95667964 53.24558098 152 55 C152 55.66 152 56.32 152 57 C134.19146684 67.46851191 116.63278124 76.36753875 97.14404297 83.23144531 C95.27344164 83.90198198 93.41832154 84.61539708 91.56640625 85.3359375 C72.75310046 92.56651035 45.28735744 102.17494225 25.72265625 94.25 C9.64507841 86.86861563 0.04188754 75.22434476 -6.16015625 58.95703125 C-11.6870314 39.49728943 -8.18047367 18.10147365 0 0 Z " fill="#2B2D42" transform="translate(236,421)"/>
<path d="M0 0 C0.33 0 0.66 0 1 0 C1.55759337 6.43257907 2.10803876 12.86574423 2.65405273 19.29931641 C2.83967189 21.4771839 3.02678938 23.65492433 3.21557617 25.83251953 C5.04168349 46.91797205 6.23189528 67.9565943 6.25 89.125 C6.25100708 89.9654184 6.25201416 90.80583679 6.25305176 91.67172241 C6.23361569 116.0825715 5.44455436 141.33214719 -1 165 C-1.18820313 165.73154297 -1.37640625 166.46308594 -1.5703125 167.21679688 C-4.08095075 176.93296689 -7.40827528 184.81655057 -12 194 C-28.5 194 -45 194 -62 194 C-73.04463118 171.91073764 -75.71918221 148.33100962 -78 124 C-78.10586426 122.95489258 -78.21172852 121.90978516 -78.32080078 120.83300781 C-80.08484869 103.04715548 -80.18342223 85.29587221 -80.1875 67.4375 C-80.18849701 66.28027435 -80.18949402 65.12304871 -80.19052124 63.93075562 C-80.18912332 49.59026058 -79.88139276 35.31426471 -79 21 C-76.80127786 23.19872214 -76.38949777 24.41548629 -75.484375 27.33984375 C-75.2059375 28.22776611 -74.9275 29.11568848 -74.640625 30.03051758 C-74.34671875 30.98982178 -74.0528125 31.94912598 -73.75 32.9375 C-73.11987291 34.9609628 -72.48966326 36.9843999 -71.859375 39.0078125 C-71.54548828 40.02262695 -71.23160156 41.03744141 -70.90820312 42.08300781 C-70.10517017 44.6622115 -69.28547658 47.23482915 -68.453125 49.8046875 C-62.52010726 68.15661713 -57.52985478 86.77313218 -52.6875 105.4375 C-52.51655823 106.0936731 -52.34561646 106.74984619 -52.16949463 107.42590332 C-51.676172 109.32346316 -51.18763706 111.22226566 -50.69921875 113.12109375 C-50.41908936 114.2083374 -50.13895996 115.29558105 -49.8503418 116.41577148 C-48.78131135 120.92178237 -47.88257008 125.45432027 -47 130 C-46.95210831 129.1304921 -46.90421661 128.26098419 -46.85487366 127.36512756 C-46.40147621 119.14146491 -45.94566968 110.91794 -45.48720646 102.69455814 C-45.25163169 98.4675861 -45.0169647 94.24056786 -44.78442383 90.01342773 C-44.55966827 85.92843418 -44.33246088 81.8435835 -44.10360527 77.75881767 C-44.01703318 76.20608733 -43.93132116 74.65330876 -43.84651375 73.10048103 C-43.42400295 65.37414462 -42.97090355 57.68033817 -42 50 C-39.0627001 53.42395314 -37.59162497 57.16995712 -36.125 61.375 C-35.8681543 62.10960449 -35.61130859 62.84420898 -35.34667969 63.60107422 C-29.36159346 81.37552573 -26.32054335 99.77431619 -25.453125 118.4609375 C-25.40881348 119.38156982 -25.36450195 120.30220215 -25.31884766 121.25073242 C-25.21081637 123.50041096 -25.10457319 125.75015852 -25 128 C-20.52289334 105.33152107 -16.07975375 82.65829094 -11.875 59.9375 C-11.71321259 59.06379761 -11.55142517 58.19009521 -11.38473511 57.28991699 C-10.73819486 53.79770295 -10.09202527 50.30542058 -9.44633484 46.81304932 C-7.81852825 38.01091658 -6.18092093 29.21065599 -4.52716064 20.4133606 C-4.21982494 18.7757776 -3.91361348 17.13798317 -3.60858154 15.49996948 C-3.19108191 13.25855641 -2.76986561 11.0178737 -2.34765625 8.77734375 C-2.11054932 7.51140381 -1.87344238 6.24546387 -1.62915039 4.94116211 C-1 2 -1 2 0 0 Z " fill="#2D2D42" transform="translate(138,235)"/>
<path d="M0 0 C0.33 0 0.66 0 1 0 C1 59.4 1 118.8 1 180 C-16.44626309 186.97850524 -16.44626309 186.97850524 -24.0625 189.0625 C-24.94260742 189.30798584 -25.82271484 189.55347168 -26.72949219 189.80639648 C-35.8176919 192.29720662 -44.97896565 194.42619607 -54.19287109 196.39550781 C-56.9206138 196.98290483 -59.64158789 197.59621789 -62.36328125 198.2109375 C-93.71448685 205.07706532 -126.05514382 208.29293473 -158 211 C-159.08684082 211.09643799 -160.17368164 211.19287598 -161.29345703 211.29223633 C-162.3451709 211.38400146 -163.39688477 211.4757666 -164.48046875 211.5703125 C-165.40625732 211.65168457 -166.3320459 211.73305664 -167.28588867 211.81689453 C-171.52489204 212.10287569 -175.75402271 212.0845438 -180 212 C-177.77505941 209.77505941 -176.43517135 209.32910573 -173.4765625 208.37109375 C-172.5479541 208.06308838 -171.6193457 207.75508301 -170.66259766 207.43774414 C-169.66019043 207.10766357 -168.6577832 206.77758301 -167.625 206.4375 C-122.03443881 190.97372261 -78.04875817 162.86272906 -49.25146484 123.70019531 C-48.00267559 122.00363496 -46.73112897 120.32604025 -45.45703125 118.6484375 C-29.97032497 97.95463279 -18.64464063 73.60507589 -11 49 C-10.69964844 48.03578125 -10.39929688 47.0715625 -10.08984375 46.078125 C-5.43541026 30.88792364 -2.2293928 15.72476389 0 0 Z " fill="#2C2E43" transform="translate(502,304)"/>
<path d="M0 0 C12.2821875 -0.061875 12.2821875 -0.061875 24.8125 -0.125 C27.37491455 -0.14320801 29.9373291 -0.16141602 32.57739258 -0.18017578 C34.64143668 -0.18602495 36.70548312 -0.1911195 38.76953125 -0.1953125 C39.81443726 -0.20554443 40.85934326 -0.21577637 41.93591309 -0.22631836 C57.05856483 -0.22985293 71.14653249 3.3612952 82.328125 14.13671875 C91.9829314 24.89686514 94.83867516 36.63460698 94.3203125 50.78515625 C93.6258682 62.07861916 88.43211289 73.32801468 80 81 C67.3470538 90.2265054 56.04719896 93.33989505 40.52734375 93.1953125 C39.49452271 93.19329834 38.46170166 93.19128418 37.39758301 93.18920898 C33.57750949 93.17882644 29.7574998 93.15090452 25.9375 93.125 C13.0984375 93.063125 13.0984375 93.063125 0 93 C0 62.31 0 31.62 0 0 Z " fill="#E9EEF1" transform="translate(339,598)"/>
<path d="M0 0 C7.734375 -0.04125 15.46875 -0.0825 23.4375 -0.125 C25.86150146 -0.14320801 28.28550293 -0.16141602 30.78295898 -0.18017578 C32.72900166 -0.18602331 34.67504681 -0.19111825 36.62109375 -0.1953125 C37.6114563 -0.20554443 38.60181885 -0.21577637 39.62219238 -0.22631836 C51.98357262 -0.2293876 62.99454836 2.47150036 72.2109375 11.08203125 C79.01417228 18.37545544 81.55531781 26.47581908 81.3125 36.35546875 C80.35118762 44.49057478 76.8029992 52.1970008 71 58 C68.44046113 59.89424357 65.81447775 61.51418434 63 63 C66.82468201 70.05205852 71.47136835 76.45014547 76.13085938 82.96875 C76.74123047 83.82984375 77.35160156 84.6909375 77.98046875 85.578125 C78.81421021 86.74456543 78.81421021 86.74456543 79.66479492 87.93457031 C81 90 81 90 82 93 C61.83191025 94.95102443 61.83191025 94.95102443 55.78515625 90.78515625 C53.48897538 87.62531241 51.70942936 84.51210033 50 81 C47.57318009 76.0833259 45.21400622 71.62795238 41 68 C34.71951497 66.15576302 28.51113261 66.77233802 22 67 C22 75.58 22 84.16 22 93 C14.74 93 7.48 93 0 93 C0 62.31 0 31.62 0 0 Z " fill="#EBF0F2" transform="translate(25,598)"/>
<path d="M0 0 C30.36 0 60.72 0 92 0 C92 21.12 92 42.24 92 64 C61.64 64 31.28 64 0 64 C0 42.88 0 21.76 0 0 Z " fill="#2B2D42" transform="translate(55,482)"/>
<path d="M0 0 C12.77672326 4.8841767 22.21008798 16.71136464 30.95492935 26.72882462 C33.99581733 30.16161627 37.16220041 33.47480125 40.31558609 36.80389786 C44.87292787 41.65231886 49.38623865 46.53474951 53.7958107 51.51825333 C54.48936661 52.29292953 54.48936661 52.29292953 55.19693375 53.08325577 C58.31753922 56.64852564 58.31753922 56.64852564 58.31753922 58.88592911 C8.15753922 58.88592911 -42.00246078 58.88592911 -93.68246078 58.88592911 C-85.69013136 49.56154478 -77.66229217 40.31977586 -69.26162434 31.36228657 C-66.47601771 28.38594108 -63.73810024 25.38603175 -61.08456039 22.2909584 C-44.55053237 3.09348694 -25.97585691 -7.74924079 0 0 Z " fill="#2D2D42" transform="translate(439.6824607849121,109.11407089233398)"/>
<path d="M0 0 C23.43 0 46.86 0 71 0 C71 5.61 71 11.22 71 17 C54.83 17 38.66 17 22 17 C22 23.6 22 30.2 22 37 C36.19 37 50.38 37 65 37 C65 42.61 65 48.22 65 54 C50.81 54 36.62 54 22 54 C22 61.26 22 68.52 22 76 C38.5 76 55 76 72 76 C72 81.61 72 87.22 72 93 C48.24 93 24.48 93 0 93 C0 62.31 0 31.62 0 0 Z " fill="#EBF0F2" transform="translate(122,598)"/>
<path d="M0 0 C-0.50512524 6.22987798 -3.32604123 11.45474233 -6 17 C-8.91930791 16.04972675 -11.8013254 15.08029032 -14.6484375 13.9296875 C-23.49281391 10.50851038 -34.33613371 8.63015385 -43.3515625 12.40234375 C-46.03913203 13.87898298 -46.03913203 13.87898298 -48 16 C-48.66958825 20.10347086 -48.66958825 20.10347086 -48 24 C-43.79636226 27.49983234 -39.85004114 28.78201518 -34.5625 29.9375 C-4.86694201 36.83210008 -4.86694201 36.83210008 3 49 C5.42125238 55.85287794 5.15483656 65.5273465 2.16796875 72.16015625 C-3.20424459 80.62273981 -10.96601024 85.28605515 -20.53759766 87.58544922 C-33.93386232 89.84073946 -50.56471044 89.93067656 -63 84 C-63.89976562 83.57976562 -64.79953125 83.15953125 -65.7265625 82.7265625 C-71.79034515 79.62896455 -71.79034515 79.62896455 -73 76 C-71.93650501 73.5107842 -70.83016927 71.19266245 -69.5625 68.8125 C-69.22412109 68.15830078 -68.88574219 67.50410156 -68.53710938 66.83007812 C-67.70030902 65.21540701 -66.85130254 63.60707237 -66 62 C-62.87213722 63.22275962 -59.83860081 64.54656321 -56.8125 66 C-46.74826961 70.43620682 -33.8256545 72.34090792 -23.25 68.6875 C-19.80523214 67.23091085 -19.80523214 67.23091085 -18 64 C-17.76246692 60.49211747 -17.76246692 60.49211747 -19 57 C-25.86523843 52.01591448 -34.10781491 50.70834021 -42.22070312 48.73242188 C-53.25137643 45.93148972 -62.39481561 42.66706287 -69 33 C-72.05439675 27.02400637 -71.90915623 19.74550591 -70.34765625 13.3125 C-67.37591447 4.94570769 -62.21014659 -0.32650023 -54.28515625 -4.17578125 C-37.96688705 -10.06151595 -14.79301649 -9.86201099 0 0 Z " fill="#EAEFF1" transform="translate(277,604)"/>
<path d="M0 0 C30.69 0 61.38 0 93 0 C93 11.88 93 23.76 93 36 C81.02196106 36.02254967 69.0439361 36.0409143 57.06588078 36.05181217 C51.50460589 36.05704134 45.94334621 36.06413958 40.38208008 36.07543945 C35.01992581 36.08626715 29.65778622 36.09227658 24.29562187 36.09487724 C22.24499722 36.09673171 20.1943734 36.10035272 18.14375496 36.10573006 C15.28209797 36.11293893 12.42050243 36.11399101 9.55883789 36.11352539 C8.70216522 36.11712067 7.84549255 36.12071594 6.96286011 36.12442017 C1.11405216 36.11405216 1.11405216 36.11405216 0 35 C0 23.45 0 11.9 0 0 Z " fill="#2E2F43" transform="translate(54,438)"/>
<path d="M0 0 C3.70697705 -0.26260373 7.41156358 -0.42156838 11.125 -0.5625 C12.17171875 -0.63791016 13.2184375 -0.71332031 14.296875 -0.79101562 C21.83883855 -1.00581838 21.83883855 -1.00581838 24.77563477 1.53808594 C26.40534032 3.94058104 27.68702472 6.41020447 29 9 C30.02106175 10.69847772 31.04301941 12.39650159 32.08227539 14.08390808 C33.20901131 15.91434599 34.3187992 17.75404264 35.42382812 19.59765625 C35.79580322 20.21785645 36.16777832 20.83805664 36.55102539 21.47705078 C37.31482752 22.75262494 38.07783614 24.02867455 38.84008789 25.30517578 C39.95599288 27.17191014 41.07724311 29.03534741 42.19921875 30.8984375 C43.18668091 32.54851807 43.18668091 32.54851807 44.1940918 34.23193359 C45.66796248 36.49105834 46.99619037 38.22443324 49 40 C49.25217285 39.31156006 49.5043457 38.62312012 49.76416016 37.91381836 C51.18160993 34.57180669 52.92873646 31.49607465 54.7734375 28.37890625 C55.13845367 27.75652573 55.50346985 27.1341452 55.87954712 26.49290466 C56.64949783 25.1817207 57.42112643 23.87152074 58.19433594 22.56225586 C59.36795217 20.5744373 60.53595945 18.58340841 61.703125 16.59179688 C62.45539908 15.31230587 63.2079929 14.03300279 63.9609375 12.75390625 C64.47834 11.87237633 64.47834 11.87237633 65.00619507 10.97303772 C65.99121978 9.30765458 66.99537617 7.65363407 68 6 C68.63599121 4.88278564 69.27198242 3.76557129 69.92724609 2.61450195 C72 0 72 0 74.47363281 -0.68115234 C75.37436523 -0.64973145 76.27509766 -0.61831055 77.203125 -0.5859375 C78.67265625 -0.55693359 78.67265625 -0.55693359 80.171875 -0.52734375 C81.69554687 -0.45193359 81.69554687 -0.45193359 83.25 -0.375 C84.796875 -0.33439453 84.796875 -0.33439453 86.375 -0.29296875 C88.9187875 -0.22230799 91.45833099 -0.12372078 94 0 C89.68262687 7.71058013 85.23072512 15.33396709 80.6784668 22.90820312 C79.3780551 25.07736688 78.08673037 27.25200086 76.80395508 29.43164062 C73.85632567 34.41205435 70.89858805 39.25032688 67.3984375 43.86328125 C56.29769086 59.033226 57.45498696 74.93072154 58 93 C50.74 93 43.48 93 36 93 C36.10183594 90.83566406 36.20367187 88.67132812 36.30859375 86.44140625 C36.91182713 66.36781229 34.11186452 53.41257332 21.98925781 36.79589844 C18.89516102 32.44715071 16.24664962 27.85846899 13.5625 23.25 C12.60315946 21.64279726 11.64103172 20.03725408 10.67578125 18.43359375 C10.2267041 17.68706543 9.77762695 16.94053711 9.31494141 16.17138672 C6.69021891 11.8371346 4.01411051 7.5347662 1.328125 3.23828125 C0 1 0 1 0 0 Z " fill="#EAEFF1" transform="translate(432,598)"/>
<path d="M0 0 C31.23076923 0 31.23076923 0 40.75 5.625 C48.19087974 13.47926194 50.3680901 21.05711593 50.28515625 31.6015625 C49.70499857 38.51577045 47.01705902 45.12230373 42 50 C28.58955545 59.84200007 18.69124642 57 0 57 C0 38.19 0 19.38 0 0 Z " fill="#2B2D42" transform="translate(361,616)"/>
<path d="M0 0 C0.33 0 0.66 0 1 0 C1 21.12 1 42.24 1 64 C29.71 64 58.42 64 88 64 C88.33 59.05 88.66 54.1 89 49 C89.3394376 45.01842176 89.68773637 41.04054657 90.0625 37.0625 C90.15337891 36.08087891 90.24425781 35.09925781 90.33789062 34.08789062 C90.55688141 31.72509534 90.77757712 29.36247422 91 27 C94.25299806 28.56648061 96.91714728 30.37538166 99.75 32.625 C100.54921875 33.25664063 101.3484375 33.88828125 102.171875 34.5390625 C102.77515625 35.02117188 103.3784375 35.50328125 104 36 C100.69176113 45.92471662 96.29305875 55.45986944 92 65 C13.13 65 -65.74 65 -147 65 C-143.34831137 60.7396966 -139.86242451 56.73677211 -135.9284668 52.79907227 C-135.46102554 52.32987869 -134.99358429 51.86068512 -134.51197815 51.37727356 C-132.99353331 49.85448968 -131.47153532 48.33531881 -129.94921875 46.81640625 C-128.88387202 45.75038487 -127.81867368 44.68421517 -126.75361633 43.61790466 C-124.53552414 41.39834689 -122.31565488 39.18058646 -120.09448242 36.96411133 C-117.24169116 34.11705865 -114.3934692 31.26548334 -111.54652691 28.41258335 C-109.35483204 26.21728754 -107.16077679 24.02436332 -104.96598244 21.83216667 C-103.91382173 20.78067437 -102.86240701 19.72843507 -101.81174278 18.67544746 C-100.35174657 17.21292791 -98.88861211 15.75362438 -97.42456055 14.29516602 C-96.59216354 13.46356461 -95.75976654 12.6319632 -94.90214539 11.77516174 C-93 10 -93 10 -92 10 C-92 27.82 -92 45.64 -92 64 C-61.64 64 -31.28 64 0 64 C0 42.88 0 21.76 0 0 Z " fill="#E4E0E4" transform="translate(147,482)"/>
<path d="M0 0 C7.26 0 14.52 0 22 0 C22 30.69 22 61.38 22 93 C14.74 93 7.48 93 0 93 C0 62.31 0 31.62 0 0 Z " fill="#EAEFF2" transform="translate(296,598)"/>
<path d="M0 0 C11 0 11 0 13.77758789 2.53857422 C14.46761262 3.68657424 15.11467381 4.86120708 15.72265625 6.0546875 C16.07968124 6.67143341 16.43670624 7.28817932 16.80455017 7.9236145 C17.93062198 9.88775926 18.996376 11.87779599 20.0625 13.875 C20.81058316 15.20920851 21.5625042 16.54127282 22.31835938 17.87109375 C23.3809837 19.74181206 24.43683274 21.61372636 25.46363831 23.50436401 C26.81235923 25.98506904 27.99041565 27.99041565 30 30 C30.50974365 29.12674072 31.0194873 28.25348145 31.54467773 27.35375977 C33.43098341 24.12319611 35.31930695 20.89381592 37.20825195 17.66479492 C38.02651442 16.2653792 38.84422456 14.86564038 39.66137695 13.46557617 C40.83400764 11.45667278 42.00860046 9.44892845 43.18359375 7.44140625 C43.55028671 6.81222794 43.91697968 6.18304962 44.29478455 5.5348053 C46.88612829 1.11387171 46.88612829 1.11387171 48 0 C51.63 0 55.26 0 59 0 C59 17.49 59 34.98 59 53 C55.04 53 51.08 53 47 53 C46.67 44.09 46.34 35.18 46 26 C42.00765766 33.22430093 42.00765766 33.22430093 38.07397461 40.48046875 C33.99632472 47.61748247 33.99632472 47.61748247 29.5 49.34375 C23.85194471 47.1753002 21.92970177 42.61160509 19.0625 37.5 C17.061875 34.035 15.06125 30.57 13 27 C12.67 35.58 12.34 44.16 12 53 C8.04 53 4.08 53 0 53 C0 35.51 0 18.02 0 0 Z " fill="#2B2D42" transform="translate(128,732)"/>
<path d="M0 0 C4.74375 -0.061875 9.4875 -0.12375 14.375 -0.1875 C16.58775635 -0.22846802 16.58775635 -0.22846802 18.84521484 -0.27026367 C30.13606996 -0.34116506 38.76797527 0.63922645 47.08203125 8.703125 C52.12867672 14.7467656 53.71939015 21.48941204 53.37890625 29.265625 C52.39078009 36.39643231 49.6593417 42.64271261 44.16308594 47.41601562 C35.36478634 53.85883366 25.21352309 53.49947002 14.8125 53.25 C9.924375 53.1675 5.03625 53.085 0 53 C0 35.51 0 18.02 0 0 Z M13 11 C13 21.23 13 31.46 13 42 C26.7624748 42.85233965 26.7624748 42.85233965 36.8125 36.375 C39.71254412 32.59274181 40.26999585 28.68810969 40 24 C38.33178897 18.11219635 35.8389666 15.42760134 31 12 C25.29912287 10.09970762 19.00925213 11 13 11 Z " fill="#2B2D42" transform="translate(270,732)"/>
<path d="M0 0 C6.79350467 5.43480373 10.13605438 10.64424582 11.8125 19.25 C12.55923091 26.21948851 11.06464994 32.93649204 7.11328125 38.75 C2.05224803 44.79539921 -3.39944666 48.70099491 -11.1875 50.25 C-21.42039361 51.02005856 -29.99771241 49.76460377 -38.1875 43.25 C-44.41184762 36.73614784 -46.35815844 31.78521663 -46.6875 22.9375 C-46.4914989 14.31345163 -44.30364396 7.93567715 -38.0625 1.875 C-26.43823189 -6.98158523 -12.4201208 -6.81888985 0 0 Z M-28.76953125 10.68359375 C-32.71895358 15.24762359 -33.55016324 19.07217889 -33.46484375 24.90234375 C-32.85724149 30.04556851 -30.34120487 33.25361852 -26.4375 36.625 C-21.10736944 39.29006528 -17.25437811 39.84554115 -11.5 38.1875 C-7.17841999 35.65978339 -4.45737366 32.78974732 -2.1875 28.25 C-1.66636829 23.02159666 -1.54476466 18.60963246 -3.8125 13.8125 C-7.3840884 9.9589441 -10.47084525 7.72684854 -15.5625 6.3125 C-20.66634531 6.22450267 -24.90834648 7.18469298 -28.76953125 10.68359375 Z " fill="#2B2D42" transform="translate(477.1875,735.75)"/>
<path d="M0 0 C6.79350467 5.43480373 10.13605438 10.64424582 11.8125 19.25 C12.55923091 26.21948851 11.06464994 32.93649204 7.11328125 38.75 C2.05224803 44.79539921 -3.39944666 48.70099491 -11.1875 50.25 C-21.42039361 51.02005856 -29.99771241 49.76460377 -38.1875 43.25 C-44.41184762 36.73614784 -46.35815844 31.78521663 -46.6875 22.9375 C-46.4914989 14.31345163 -44.30364396 7.93567715 -38.0625 1.875 C-26.43823189 -6.98158523 -12.4201208 -6.81888985 0 0 Z M-28.76953125 10.68359375 C-32.76977852 15.30635789 -33.48829974 19.08554025 -33.40234375 24.96875 C-32.96843315 29.57609163 -31.10865924 32.37732282 -27.8125 35.5 C-22.86673869 38.79717421 -19.35807415 39.74128991 -13.47265625 38.92578125 C-8.88384013 37.56874674 -5.5300644 34.39181678 -3.01953125 30.38671875 C-1.3714692 26.1543716 -1.6704386 21.7031913 -2.1875 17.25 C-4.49797065 12.36246594 -7.43033121 9.76850112 -12.1875 7.25 C-18.32730258 5.54449928 -23.96520906 6.33004747 -28.76953125 10.68359375 Z " fill="#2B2D42" transform="translate(108.1875,735.75)"/>
<path d="M0 0 C6.93 -0.0928125 6.93 -0.0928125 14 -0.1875 C16.16175781 -0.22846802 16.16175781 -0.22846802 18.3671875 -0.27026367 C26.80066275 -0.32485117 33.3529545 0.11556515 40.3125 5.25 C44.44074855 9.47425433 46.12535821 13.58735866 46.4375 19.4375 C46.14896803 27.13605767 42.39126591 31.8143711 37 37 C37.721875 38.07121094 38.44375 39.14242187 39.1875 40.24609375 C40.1251205 41.6431483 41.06261397 43.04028812 42 44.4375 C42.47695313 45.14455078 42.95390625 45.85160156 43.4453125 46.58007812 C43.89648438 47.25361328 44.34765625 47.92714844 44.8125 48.62109375 C45.23144531 49.2442749 45.65039062 49.86745605 46.08203125 50.50952148 C47 52 47 52 47 53 C41.78320142 53.7336123 37.19161981 54.06454426 32 53 C28.32932971 49.47050934 26.20740871 45.55196412 24 41 C22.33657163 39.33657163 20.2174291 39.63951903 17.9375 39.4375 C16.308125 39.293125 14.67875 39.14875 13 39 C13 43.62 13 48.24 13 53 C8.71 53 4.42 53 0 53 C0 35.51 0 18.02 0 0 Z M13 11 C13 16.61 13 22.22 13 28 C21.6474809 28.77410355 21.6474809 28.77410355 29.75 26.375 C32.50505321 23.46688828 33.08154726 21.99581592 33 18 C31.39588152 14.47093933 30.25840638 13.17227092 27 11 C23.56692835 10.75729175 23.56692835 10.75729175 19.8125 10.875 C17.564375 10.91625 15.31625 10.9575 13 11 Z " fill="#2B2D42" transform="translate(497,732)"/>
<path d="M0 0 C4.29 0 8.58 0 13 0 C13 6.93 13 13.86 13 21 C20.59 21 28.18 21 36 21 C36 14.07 36 7.14 36 0 C40.29 0 44.58 0 49 0 C49 17.49 49 34.98 49 53 C44.71 53 40.42 53 36 53 C36 46.07 36 39.14 36 32 C28.41 32 20.82 32 13 32 C13 38.93 13 45.86 13 53 C8.71 53 4.42 53 0 53 C0 35.51 0 18.02 0 0 Z " fill="#2B2D42" transform="translate(5,732)"/>
<path d="M0 0 C13.2 0 26.4 0 40 0 C40 3.63 40 7.26 40 11 C31.09 11 22.18 11 13 11 C13 14.3 13 17.6 13 21 C20.92 21 28.84 21 37 21 C37 24.3 37 27.6 37 31 C29.08 31 21.16 31 13 31 C13 34.63 13 38.26 13 42 C22.24 42 31.48 42 41 42 C41 45.63 41 49.26 41 53 C27.47 53 13.94 53 0 53 C0 35.51 0 18.02 0 0 Z " fill="#2B2D42" transform="translate(331,732)"/>
<path d="M0 0 C13.2 0 26.4 0 40 0 C40 3.63 40 7.26 40 11 C31.09 11 22.18 11 13 11 C13 14.3 13 17.6 13 21 C20.92 21 28.84 21 37 21 C37 24.3 37 27.6 37 31 C29.08 31 21.16 31 13 31 C13 34.63 13 38.26 13 42 C22.24 42 31.48 42 41 42 C41 45.63 41 49.26 41 53 C27.47 53 13.94 53 0 53 C0 35.51 0 18.02 0 0 Z " fill="#2B2D42" transform="translate(199,732)"/>
<path d="M0 0 C2.02814156 1.5530021 3.38665945 2.99723242 5 5 C3.51014431 8.79235994 1.41341953 10.80565887 -2 13 C-4.71763104 12.91507403 -6.02994803 11.98057425 -8.3125 10.5 C-12.19864123 8.33099094 -15.65978482 7.50916835 -20.0859375 8.4375 C-24.73562821 9.95858841 -27.29767958 11.78438014 -30 16 C-31.97449669 19.94899337 -31.43770498 24.69590104 -31 29 C-28.844787 33.47007141 -26.56424621 36.0290755 -22 38 C-15.79483809 39.40116559 -12.58259864 39.01460327 -7 36 C-6.34 35.34 -5.68 34.68 -5 34 C-0.75280228 34.15168563 1.98562093 37.32816401 5 40 C3.24259936 44.47338344 0.39518011 46.84658335 -3.90625 48.91796875 C-13.02557674 52.43683939 -22.44593468 52.07810764 -31.453125 48.39453125 C-38.25022437 44.67280659 -42.65398535 39.31404567 -45 32 C-47.08130024 24.43163549 -46.1596874 17.10929665 -43 10 C-38.36955738 3.18295948 -32.49648287 -1.95677164 -24.2578125 -3.6796875 C-15.49617576 -4.92268787 -7.9501309 -4.05936537 0 0 Z " fill="#2B2D42" transform="translate(423,735)"/>
<path d="M0 0 C3.96 -0.103125 7.92 -0.20625 12 -0.3125 C13.84851563 -0.38078003 13.84851563 -0.38078003 15.734375 -0.45043945 C22.82011357 -0.53935538 27.57287746 0.27551595 33 5 C35.91805931 8.20045214 36.88681451 10.84550802 37.3125 15.1875 C36.92905006 19.86558921 35.82435386 23.23419486 33 27 C30.73129164 28.7583753 28.63786128 29.77876793 26 31 C25.34 31.33 24.68 31.66 24 32 C22.18658158 32.08471364 20.37005839 32.10721083 18.5546875 32.09765625 C17.58515137 32.09515869 16.61561523 32.09266113 15.61669922 32.09008789 C14.38193848 32.08098389 13.14717773 32.07187988 11.875 32.0625 C5.996875 32.0315625 5.996875 32.0315625 0 32 C0 21.44 0 10.88 0 0 Z " fill="#2D2F44" transform="translate(47,616)"/>
<path d="M0 0 C19.8 0 39.6 0 60 0 C57.01228508 7.4692873 52.29708961 11.96160118 44.94921875 15.22265625 C36.22315113 18.70259103 26.73453098 19.70332795 17.75 16.4375 C9.27696064 12.5183743 4.65805576 8.15159759 0 0 Z " fill="#2D2F44" transform="translate(392,175)"/>
<path d="M0 0 C15.51 0 31.02 0 47 0 C47 5.28 47 10.56 47 16 C31.49 16 15.98 16 0 16 C0 10.72 0 5.44 0 0 Z " fill="#ECEDEF" transform="translate(173,132)"/>
<path d="M0 0 C15.51 0 31.02 0 47 0 C47 5.28 47 10.56 47 16 C31.49 16 15.98 16 0 16 C0 10.72 0 5.44 0 0 Z " fill="#ECEEF0" transform="translate(200,109)"/>
<path d="M0 0 C15.51 0 31.02 0 47 0 C47 5.28 47 10.56 47 16 C31.49 16 15.98 16 0 16 C0 10.72 0 5.44 0 0 Z " fill="#ECEDEF" transform="translate(146,109)"/>
<path d="M0 0 C15.18 0 30.36 0 46 0 C46 4.95 46 9.9 46 15 C30.82 15 15.64 15 0 15 C0 10.05 0 5.1 0 0 Z " fill="#EDF2F4" transform="translate(146,156)"/>
<path d="M0 0 C2.79712817 8.4826098 4.71891985 17.14960032 6.64428711 25.8605957 C7.19047178 28.32591373 7.74630002 30.78893077 8.30273438 33.25195312 C8.6542282 34.83059961 9.00515987 36.4093714 9.35546875 37.98828125 C9.52104782 38.71856033 9.68662689 39.44883942 9.85722351 40.20124817 C10.65760113 43.86102406 11.1927558 47.25064787 11 51 C7.55102138 47.87913218 5.48348467 44.62799585 3.25 40.5625 C2.54866465 39.30368874 1.84549479 38.04589806 1.140625 36.7890625 C0.60791992 35.83821777 0.60791992 35.83821777 0.06445312 34.86816406 C-3.51589085 28.58449616 -7.43563391 22.49084227 -11.28125 16.3671875 C-11.6525 15.77236572 -12.02375 15.17754395 -12.40625 14.56469727 C-13.4443836 12.90159797 -14.4876729 11.24172022 -15.53125 9.58203125 C-17 7 -17 7 -17 5 C-14.73117913 4.16080602 -12.46022973 3.32848276 -10.1875 2.5 C-9.54490234 2.26152344 -8.90230469 2.02304687 -8.24023438 1.77734375 C-5.35066261 0.72931254 -3.09923939 0 0 0 Z " fill="#323448" transform="translate(503,493)"/>
<path d="M0 0 C1.297359 2.594718 1.31574654 4.76785439 1.53515625 7.6640625 C1.62216797 8.78554688 1.70917969 9.90703125 1.79882812 11.0625 C1.88583984 12.238125 1.97285156 13.41375 2.0625 14.625 C2.15337891 15.80835938 2.24425781 16.99171875 2.33789062 18.2109375 C2.56232233 21.14036185 2.78285965 24.07002763 3 27 C0.03 27 -2.94 27 -6 27 C-7.83944626 23.04447897 -9.67051553 19.08513715 -11.5 15.125 C-12.28697266 13.43310547 -12.28697266 13.43310547 -13.08984375 11.70703125 C-13.83427734 10.09248047 -13.83427734 10.09248047 -14.59375 8.4453125 C-15.05458984 7.45031738 -15.51542969 6.45532227 -15.99023438 5.43017578 C-17 3 -17 3 -17 1 C-11.27959989 0.1679418 -5.77759884 -0.12036664 0 0 Z " fill="#323448" transform="translate(365,520)"/>
<path d="M0 0 C3.25299806 1.56648061 5.91714728 3.37538166 8.75 5.625 C9.94882813 6.57246094 9.94882813 6.57246094 11.171875 7.5390625 C11.77515625 8.02117188 12.3784375 8.50328125 13 9 C10.91932667 15.76296354 8.26750264 22.13878613 5.3125 28.5625 C4.89677734 29.47580078 4.48105469 30.38910156 4.05273438 31.33007812 C3.03917098 33.55525752 2.02154784 35.77847781 1 38 C-0.32 38 -1.64 38 -3 38 C-2.3087385 25.30261765 -1.20245437 12.65815137 0 0 Z " fill="#323348" transform="translate(238,509)"/>
<path d="M0 0 C0.66 0.66 1.32 1.32 2 2 C-1.3 2 -4.6 2 -8 2 C-5.14066998 -0.85933002 -3.8625627 -1.2875209 0 0 Z " fill="#484A5D" transform="translate(330,514)"/>
</svg>
